<?xml version="1.0" encoding="UTF-8"?>
<svg id="owl" xmlns="http://www.w3.org/2000/svg" viewBox="0 0 2041.02 373.55">
  <defs>
    <style>
      .cls-1 {
        fill: #f2efea;
      }
    </style>
  </defs>
  <path class="cls-1" d="M460.53,288.3l23.62-33.11c14.41,15.02,36.79,27.6,65.01,27.6,23.92,0,35.57-11.04,35.57-22.69,0-36.18-117.75-11.35-117.75-88.32,0-34.04,29.43-62.25,77.59-62.25,32.5,0,59.49,9.82,79.73,28.52l-24.22,31.89c-16.56-15.33-38.65-22.39-59.5-22.39-18.7,0-29.13,8.28-29.13,20.55,0,32.51,117.45,10.73,117.45,87.1,0,37.4-26.68,65.62-81.87,65.62-39.25,0-67.46-13.18-86.48-32.51"/>
  <path class="cls-1" d="M745.16,317.12v-18.7c-10.12,11.35-27.91,22.38-52.13,22.38-32.51,0-47.83-17.78-47.83-46.61v-105.19h38.94v89.85c0,20.55,10.74,27.29,27.29,27.29,15.02,0,26.98-8.28,33.73-16.87v-100.28h38.94v148.11h-38.94Z"/>
  <path class="cls-1" d="M845.12,298.11v75.44h-38.94v-204.53h38.94v18.7c11.35-14.41,27.6-22.39,45.7-22.39,38.02,0,65.62,28.22,65.62,77.59s-27.6,77.89-65.62,77.89c-17.49,0-33.74-7.36-45.7-22.7M915.96,242.91c0-25.45-15.02-42.93-37.41-42.93-12.57,0-26.98,7.36-33.43,16.86v52.44c6.44,9.2,20.86,16.87,33.43,16.87,22.39,0,37.41-17.48,37.41-43.24"/>
  <path class="cls-1" d="M970.61,242.91c0-42.93,31.58-77.58,76.66-77.58s74.2,33.12,74.2,81.56v8.59h-110.08c2.45,18.71,17.47,34.34,42.62,34.34,12.57,0,30.05-5.51,39.56-14.72l17.17,25.15c-14.72,13.49-38.02,20.55-61.02,20.55-45.08,0-79.12-30.36-79.12-77.89M1047.27,196.3c-24.22,0-34.65,18.09-36.49,32.81h72.98c-.92-14.1-10.73-32.81-36.49-32.81"/>
  <path class="cls-1" d="M1140.05,317.12v-148.11h38.95v20.24c10.42-13.18,28.83-23.92,47.23-23.92v38.02c-2.77-.61-6.44-.92-10.74-.92-12.88,0-30.05,7.36-36.49,16.87v97.82h-38.95Z"/>
  <path class="cls-1" d="M1247.95,215.01c0-61.64,45.07-105.8,106.71-105.8s107.03,44.16,107.03,105.8-45.08,105.79-107.03,105.79-106.71-44.16-106.71-105.79M1416.91,215.01c0-38.33-24.53-67.16-62.25-67.16s-61.94,28.83-61.94,67.16,24.23,67.15,61.94,67.15,62.25-29.13,62.25-67.15"/>
  <path class="cls-1" d="M1497.77,317.13v-114.07h-24.53v-34.04h24.53v-7.97c0-31.59,20.24-51.52,49.99-51.52,14.11,0,29.13,3.68,38.64,13.8l-14.72,22.99c-3.99-3.98-9.2-6.13-16.25-6.13-10.73,0-18.39,7.06-18.39,20.86v7.97h30.05v34.04h-30.05v114.07h-39.26ZM1598.05,317.13v-114.07h-24.53v-34.04h24.53v-7.97c0-32.2,20.85-51.52,49.99-51.52,11.04,0,21.15,2.46,28.21,6.13l-7.98,28.21c-3.06-2.15-7.36-3.68-12.57-3.68-11.04,0-18.4,7.36-18.4,20.86v7.97h30.04v34.04h-30.04v114.07h-39.26ZM1686.06,129.76c0-12.88,10.73-23,23.31-23s23.31,10.12,23.31,23-10.44,23.31-23.31,23.31-23.31-10.44-23.31-23.31M1690.04,169.01h38.95v148.11h-38.95v-148.11Z"/>
  <path class="cls-1" d="M1748.06,242.91c0-45.38,32.81-77.59,78.5-77.59,30.36,0,48.76,13.19,58.57,26.69l-25.45,23.92c-7.05-10.43-17.79-15.94-31.28-15.94-23.6,0-40.16,17.16-40.16,42.93s16.56,43.24,40.16,43.24c13.49,0,24.23-6.13,31.28-15.95l25.45,23.62c-9.81,13.8-28.21,26.99-58.57,26.99-45.69,0-78.5-32.2-78.5-77.89"/>
  <path class="cls-1" d="M1890.16,242.91c0-42.93,31.58-77.58,76.66-77.58s74.2,33.12,74.2,81.56v8.59h-110.08c2.44,18.71,17.48,34.34,42.62,34.34,12.58,0,30.05-5.51,39.55-14.72l17.18,25.15c-14.73,13.49-38.03,20.55-61.03,20.55-45.07,0-79.12-30.36-79.12-77.89M1966.82,196.3c-24.22,0-34.65,18.09-36.49,32.81h72.98c-.91-14.1-10.72-32.81-36.49-32.81"/>
  <path class="cls-1" d="M230.65,167.36s25.26-117.5-80.98-142.88C101.36,12.94,105.42,36.65,0,0c0,0,29.53,65.43,81.81,76.96,10.36,2.28,21.77,2.57,33.45,2.57h.45c1.78,0,3.56,0,5.34-.01,1.81-.01,3.61-.02,5.43-.02h.48c2.27,0,4.54,0,6.8.04.17,0,.32,0,.48,0,4.6.08,9.18.25,13.68.63.14.01.28.02.41.03,2.25.19,4.47.44,6.67.74,0,0,.03,0,.06.01v.08c.19,0,.39.01.58,0,9.82,1.44,19.12,4.19,27.38,9.37,16.95,13.04,27.82,38.23,26.58,66.67-.59,13.38-3.78,25.79-8.86,36.4.67-4.16,1.03-8.45,1.03-12.79,0-15.88-4.62-30.9-13-42.28-8.84-11.98-20.77-18.57-33.6-18.57s-24.78,6.59-33.61,18.57c-8.38,11.38-13,26.39-13,42.28,0,6.47.77,12.78,2.25,18.77-7.13-13.03-11.04-29.46-10.27-47.14,1.33-30.35,16.05-55.81,35.95-66.25-3.17-.08-6.37-.13-9.6-.13-1.91,0-3.83,0-5.74.02-1.92,0-3.83.01-5.74.01-6.51,0-13.63-.08-20.72-.68-11.91,16.53-19.58,37.95-20.66,61.61-2.49,54.45,30.88,100.07,74.52,101.89,39.86,1.66,74.5-33.79,82.08-81.44l.02-.02ZM194.54,184.78c-.46,10.57-3.16,20.32-7.42,28.45-9.86,10-22.17,15.73-35.28,15.16-10.79-.47-20.66-5.17-28.81-12.84-5.15-9.46-7.98-21.38-7.42-34.22.71-16.27,6.71-30.61,15.6-40.05,8.46,8.56,18.37,18.17,18.44,16.3.08-1.71-1.47-14.66-2.94-26.52,3.43-1.13,7.02-1.67,10.7-1.51,21.79.95,38.42,25.68,37.12,55.23"/>
  <path class="cls-1" d="M289.4,204.59c-5.22-8.92-13.57-19.14-22.43-28.25-8.73-8.99-17.95-16.9-25.08-21.4-3.46,34.3-18.31,63.87-39.23,82.33,3.58,5.85,10.98,17.83,17.34,27.24,14.82,21.9,41.04,56.7,41.04,56.7,27.76-31.48,41.93-86.94,31.44-110.67-.83-1.89-1.88-3.89-3.08-5.95"/>
  <path class="cls-1" d="M312.7,80.17c2.31-.46,4.72-.79,7.27-.95,1-.06,1.96-.11,2.89-.14,16.81-.67,24.57,2.39,36.35.07,6.34-1.24,13.85-4.04,24.57-9.83,31.75-17.13,42.82-57.77,42.82-57.77,0,0-28.88,13.93-50.6,16.83-29.06,3.9-54.84-5.17-89.93,18.75-37.12,25.3-35.16,95.98-34.77,104.91,3.18,2.36,6.57,5.13,10.03,8.21,15.26,13.55,31.94,32.87,38.24,47.15.53,1.2,1,2.47,1.43,3.79,1.34,4.19,2.16,8.93,2.47,14.08,5.39,1.65,11.01,2.52,16.79,2.45,37.3-.48,66.94-38.98,66.2-86.01-.35-22.54-7.63-42.93-19.22-58.02-1.17.38-2.28.69-3.37.98-5.24,1.37-9.69,1.83-14.01,1.83-3.08,0-6.06-.22-9.19-.45,14.47,10.59,24.22,32.28,23.86,57.25-.19,13.69-3.4,26.33-8.68,36.67.92-3.69,1.52-7.55,1.81-11.53.13-1.73.22-3.48.22-5.25,0-30.92-19.85-56.08-44.26-56.08-15.05,0-28.37,9.59-36.37,24.2,1.86-16.37,8.21-30.62,17.15-40.1,5.36-5.48,11.58-9.34,18.28-11.04M287.83,131.7c6.51,6.65,15.57,15.63,15.65,14.11.07-1.55-1.68-15.63-2.9-25.29,4.98-2.7,10.4-4.04,16.02-3.67,20.57,1.36,35.75,25.08,33.9,52.97-.42,6.28-1.68,12.23-3.59,17.68-7.64,9.1-17.45,14.57-28.1,14.48-20.38-.18-37.15-20.65-41.19-47.93,1.99-8.59,5.54-16.26,10.21-22.35"/>
</svg>
