<?xml version="1.0" encoding="UTF-8"?>
<svg id="Layer_3" data-name="Layer 3" xmlns="http://www.w3.org/2000/svg" viewBox="0 0 2036.08 372.74">
  <defs>
    <style>
      .cls-1 {
        fill: #06423e;
      }
    </style>
  </defs>
  <path class="cls-1" d="M459.1,287.68l23.56-33.04c14.38,14.99,36.72,27.54,64.87,27.54,23.86,0,35.49-11.01,35.49-22.64,0-36.11-117.49-11.32-117.49-88.12,0-33.96,29.37-62.11,77.41-62.11,32.43,0,59.36,9.79,79.55,28.45l-24.17,31.82c-16.52-15.3-38.55-22.34-59.36-22.34-18.67,0-29.07,8.26-29.07,20.5,0,32.43,117.19,10.71,117.19,86.9,0,37.32-26.62,65.48-81.69,65.48-39.16,0-67.31-13.16-86.28-32.43Z"/>
  <path class="cls-1" d="M743.1,316.44v-18.67c-10.1,11.32-27.84,22.34-52.01,22.34-32.43,0-47.73-17.74-47.73-46.51v-104.95h38.86v89.65c0,20.5,10.71,27.23,27.23,27.23,14.99,0,26.93-8.26,33.66-16.83v-100.05h38.86v147.78h-38.86Z"/>
  <path class="cls-1" d="M842.84,297.48v75.27h-38.86v-204.09h38.86v18.67c11.32-14.38,27.54-22.34,45.59-22.34,37.94,0,65.48,28.15,65.48,77.41s-27.54,77.71-65.48,77.71c-17.44,0-33.66-7.34-45.59-22.64ZM913.52,242.4c0-25.4-14.99-42.84-37.33-42.84-12.54,0-26.92,7.34-33.35,16.83v52.32c6.43,9.18,20.81,16.83,33.35,16.83,22.34,0,37.33-17.44,37.33-43.14Z"/>
  <path class="cls-1" d="M968.04,242.4c0-42.84,31.52-77.41,76.49-77.41s74.04,33.05,74.04,81.39v8.57h-109.84c2.45,18.67,17.44,34.27,42.53,34.27,12.55,0,29.99-5.5,39.47-14.68l17.14,25.09c-14.69,13.46-37.94,20.5-60.89,20.5-44.98,0-78.94-30.29-78.94-77.71ZM1044.53,195.89c-24.17,0-34.57,18.05-36.41,32.74h72.82c-.92-14.07-10.71-32.74-36.41-32.74Z"/>
  <path class="cls-1" d="M1137.11,316.44v-147.78h38.86v20.19c10.4-13.16,28.76-23.87,47.12-23.87v37.94c-2.76-.61-6.43-.92-10.71-.92-12.85,0-29.98,7.34-36.41,16.83v97.61h-38.86Z"/>
  <path class="cls-1" d="M1244.76,214.56c0-61.5,44.98-105.56,106.47-105.56s106.79,44.06,106.79,105.56-44.98,105.56-106.79,105.56-106.47-44.06-106.47-105.56ZM1413.35,214.56c0-38.25-24.48-67.01-62.11-67.01s-61.8,28.76-61.8,67.01,24.18,67,61.8,67,62.11-29.07,62.11-67Z"/>
  <path class="cls-1" d="M1494.03,316.44v-113.82h-24.48v-33.96h24.48v-7.95c0-31.52,20.19-51.4,49.87-51.4,14.08,0,29.07,3.67,38.56,13.77l-14.69,22.95c-3.97-3.98-9.17-6.12-16.21-6.12-10.71,0-18.36,7.04-18.36,20.81v7.95h29.98v33.96h-29.98v113.82h-39.16ZM1594.08,316.44v-113.82h-24.48v-33.96h24.48v-7.95c0-32.13,20.8-51.4,49.87-51.4,11.02,0,21.11,2.45,28.15,6.12l-7.96,28.15c-3.06-2.14-7.34-3.67-12.54-3.67-11.01,0-18.36,7.34-18.36,20.81v7.95h29.98v33.96h-29.98v113.82h-39.16ZM1681.9,129.5c0-12.85,10.7-22.95,23.25-22.95s23.25,10.1,23.25,22.95-10.41,23.26-23.25,23.26-23.25-10.4-23.25-23.26ZM1685.87,316.44v-147.78h38.86v147.78h-38.86Z"/>
  <path class="cls-1" d="M1743.76,242.4c0-45.29,32.74-77.41,78.33-77.41,30.29,0,48.65,13.16,58.44,26.62l-25.4,23.87c-7.03-10.41-17.74-15.91-31.21-15.91-23.56,0-40.08,17.13-40.08,42.84s16.52,43.14,40.08,43.14c13.47,0,24.18-6.12,31.21-15.91l25.4,23.56c-9.79,13.77-28.14,26.92-58.44,26.92-45.59,0-78.33-32.12-78.33-77.71Z"/>
  <path class="cls-1" d="M1885.54,242.4c0-42.84,31.51-77.41,76.49-77.41s74.04,33.05,74.04,81.39v8.57h-109.84c2.45,18.67,17.44,34.27,42.53,34.27,12.55,0,29.99-5.5,39.47-14.68l17.14,25.09c-14.69,13.46-37.94,20.5-60.89,20.5-44.98,0-78.94-30.29-78.94-77.71ZM1962.03,195.89c-24.17,0-34.57,18.05-36.41,32.74h72.82c-.92-14.07-10.7-32.74-36.41-32.74Z"/>
  <g>
    <path class="cls-1" d="M229.89,166.8s25.18-117.11-80.71-142.41C101.04,12.89,105.07,36.53,0,0c0,0,29.43,65.22,81.54,76.71,10.32,2.28,21.7,2.56,33.33,2.57h.46c1.77,0,3.55-.01,5.33-.02,1.8,0,3.59-.02,5.4-.02h.47c2.26,0,4.53.02,6.78.05.16,0,.32,0,.48.01,4.59.07,9.15.25,13.64.62.13.01.27.03.41.04,2.23.19,4.46.43,6.65.74.02,0,.04,0,.05.01v.08c.2,0,.39,0,.58,0,9.79,1.43,19.06,4.17,27.28,9.34,16.89,12.99,27.73,38.1,26.49,66.46-1,22.92-9.68,43.04-22.45,55.97,4.27-8.11,6.99-17.83,7.45-28.39,1.29-29.45-15.28-54.1-37-55.05-3.67-.16-7.25.38-10.67,1.51,1.48,11.83,3.01,24.73,2.94,26.43-.08,1.86-9.96-7.72-18.39-16.24-8.85,9.41-14.84,23.7-15.55,39.92-.56,12.75,2.25,24.6,7.35,34.01-14.51-13.71-23.53-36.92-22.4-62.9,1.32-30.25,16-55.62,35.83-66.02-3.16-.08-6.34-.13-9.56-.13-1.91,0-3.82.01-5.72.02-1.91.01-3.82.02-5.72.02-6.49,0-13.58-.09-20.65-.67-11.86,16.47-19.51,37.82-20.59,61.39-2.48,54.27,30.78,99.73,74.28,101.55,39.73,1.66,74.25-33.68,81.82-81.17v-.02Z"/>
    <path class="cls-1" d="M241.09,154.42c-3.44,34.17-18.25,63.65-39.1,82.05,3.56,5.84,10.94,17.77,17.29,27.16,14.76,21.82,40.89,56.51,40.89,56.51,27.67-31.38,41.79-86.65,31.34-110.3-7.98-18.08-34.43-45.33-50.42-55.42Z"/>
    <path class="cls-1" d="M311.66,79.9c2.3-.45,4.7-.79,7.25-.95,28.38-1.76,31.94,7.2,63.59-9.87,31.65-17.08,42.69-57.58,42.69-57.58,0,0-28.79,13.88-50.44,16.78-28.96,3.88-54.66-5.16-89.63,18.69-37,25.22-35.05,95.66-34.65,104.56,8.41,6.24,18.32,15.46,27.13,25.3.19.21.38.41.56.62.82.92,1.61,1.84,2.41,2.77.37.43.74.86,1.1,1.28.69.81,1.35,1.63,2.02,2.45.45.55.89,1.09,1.32,1.64.59.75,1.17,1.49,1.74,2.24.47.62.94,1.23,1.39,1.85.51.69,1.02,1.38,1.51,2.06.48.67.95,1.34,1.41,2.01.43.63.87,1.26,1.28,1.88.48.72.93,1.44,1.37,2.15.35.56.71,1.12,1.04,1.67.48.8.91,1.59,1.35,2.37.25.45.52.9.75,1.34.64,1.21,1.22,2.4,1.73,3.55.58,1.3,1.08,2.69,1.53,4.13.13.41.22.85.33,1.27.29,1.04.58,2.09.81,3.2.61,2.89,1.01,5.98,1.22,9.23,5.36,1.65,10.96,2.51,16.73,2.44,37.18-.47,66.72-38.85,65.99-85.71-.35-22.47-7.61-42.8-19.16-57.84-6.74,2.16-12.13,2.79-17.33,2.79-3.07,0-6.04-.22-9.16-.45,14.42,10.56,24.13,32.17,23.78,57.06-.32,23.02-9.19,43.04-22.16,54.07,4.51-7.75,7.47-17.25,8.16-27.63,1.84-27.8-13.29-51.44-33.79-52.8-5.6-.37-11.01.97-15.97,3.66,1.23,9.62,2.96,23.66,2.89,25.2-.06,1.52-9.1-7.43-15.59-14.06-5.49,7.18-9.45,16.53-11.09,27.03-.89-5.2-1.37-10.63-1.3-16.26.43-31.12,16.44-56.85,37.17-62.13Z"/>
  </g>
</svg>
