<?xml version="1.0" encoding="UTF-8"?>
<svg id="Layer_1" data-name="Layer 1" xmlns="http://www.w3.org/2000/svg" xmlns:xlink="http://www.w3.org/1999/xlink" viewBox="0 0 35 35">
  <defs>
    <style>
      .cls-1 {
        fill: none;
      }

      .cls-2 {
        fill: #f2efea;
      }

      .cls-3 {
        fill: #06423e;
        fill-rule: evenodd;
      }

      .cls-4 {
        clip-path: url(#clippath);
      }
    </style>
    <clipPath id="clippath">
      <rect class="cls-1" width="35" height="35"/>
    </clipPath>
  </defs>
  <rect class="cls-2" x="1" y="1" width="33" height="33" rx="16.5" ry="16.5"/>
  <g class="cls-4">
    <path class="cls-3" d="M9.79,7.08c-1.55,0-2.57,1.03-2.57,2.36s.99,2.36,2.51,2.36h.03c1.58,0,2.57-1.05,2.57-2.36-.03-1.34-.99-2.36-2.54-2.36ZM28.4,27.33v-7.84c0-4.2-2.24-6.15-5.23-6.15-2.41,0-3.49,1.32-4.09,2.26v-1.93h-4.54c.06,1.29,0,13.67,0,13.67h4.54v-7.63c0-.41.03-.82.15-1.11.33-.82,1.08-1.66,2.33-1.66,1.64,0,2.3,1.26,2.3,3.09v7.31h4.54ZM12.02,27.33v-13.67h-4.54v13.67h4.54ZM17.5,0c9.66,0,17.5,7.84,17.5,17.5s-7.84,17.5-17.5,17.5S0,27.16,0,17.5,7.84,0,17.5,0Z"/>
  </g>
</svg>