<?xml version="1.0" encoding="UTF-8"?>
<svg id="Layer_1" data-name="Layer 1" xmlns="http://www.w3.org/2000/svg" viewBox="0 0 35 35">
  <defs>
    <style>
      .cls-1 {
        fill: #06423e;
      }

      .cls-1, .cls-2 {
        fill-rule: evenodd;
      }

      .cls-2 {
        fill: #f2efea;
      }
    </style>
  </defs>
  <path class="cls-2" d="M17.5,35h0c9.61,0,17.39-7.84,17.39-17.5h0C34.89,7.84,27.11,0,17.5,0h0C7.89,0,.11,7.84.11,17.5H.11c0,9.67,7.79,17.5,17.39,17.5Z"/>
  <path class="cls-1" d="M14.78,34.78C6.47,33.47.11,26.22.11,17.5.11,7.84,7.9,0,17.5,0s17.39,7.84,17.39,17.5c0,8.72-6.37,15.97-14.67,17.28v-12.22h4.05l.77-5.06h-4.82v-3.28c0-1.38.67-2.73,2.84-2.73h2.19v-4.3s-1.99-.34-3.89-.34c-3.97,0-6.57,2.42-6.57,6.81v3.86h-4.42v5.06h4.42v12.22h0Z"/>
</svg>