<?xml version="1.0" encoding="UTF-8"?>
<svg id="Layer_1" data-name="Layer 1" xmlns="http://www.w3.org/2000/svg" xmlns:xlink="http://www.w3.org/1999/xlink" viewBox="0 0 35 35">
  <defs>
    <style>
      .cls-1 {
        fill: none;
      }

      .cls-2 {
        fill: #f2efea;
      }

      .cls-3 {
        fill: #06423e;
        fill-rule: evenodd;
      }

      .cls-4 {
        clip-path: url(#clippath);
      }
    </style>
    <clipPath id="clippath">
      <rect class="cls-1" width="35" height="35"/>
    </clipPath>
  </defs>
  <rect class="cls-2" x="1" y="1" width="33" height="33" rx="16.5" ry="16.5"/>
  <g class="cls-4">
    <path class="cls-3" d="M24.65,11.66c0,.73-.59,1.32-1.32,1.32s-1.32-.59-1.32-1.32.59-1.32,1.32-1.32,1.32.59,1.32,1.32ZM17.5,21.15c-2.01,0-3.65-1.63-3.65-3.65s1.63-3.65,3.65-3.65,3.65,1.63,3.65,3.65-1.63,3.65-3.65,3.65ZM17.5,11.88c-3.1,0-5.62,2.51-5.62,5.62s2.51,5.62,5.62,5.62,5.62-2.51,5.62-5.62-2.51-5.62-5.62-5.62ZM17.5,8.54c2.92,0,3.27,0,4.42.07,1.06.05,1.64.23,2.03.38.51.2.88.44,1.26.82.39.38.62.75.82,1.26.15.39.33.97.38,2.03.05,1.15.07,1.5.07,4.42s0,3.27-.07,4.42c-.05,1.06-.23,1.64-.38,2.03-.2.51-.44.88-.82,1.26-.38.39-.75.62-1.26.82-.39.15-.97.33-2.03.38-1.15.05-1.5.07-4.42.07s-3.27,0-4.42-.07c-1.06-.05-1.64-.23-2.03-.38-.51-.2-.88-.44-1.26-.82-.39-.38-.62-.75-.82-1.26-.15-.39-.33-.97-.38-2.03-.05-1.15-.07-1.5-.07-4.42s0-3.27.07-4.42c.05-1.06.23-1.64.38-2.03.2-.51.44-.88.82-1.26.39-.39.75-.62,1.26-.82.39-.15.97-.33,2.03-.38,1.15-.05,1.5-.07,4.42-.07ZM17.5,6.56c-2.97,0-3.34.01-4.51.07s-1.96.24-2.65.51c-.72.28-1.33.65-1.94,1.26-.61.61-.98,1.22-1.26,1.94-.27.7-.45,1.49-.51,2.65-.05,1.17-.07,1.54-.07,4.51s.01,3.34.07,4.51.24,1.96.51,2.65c.28.72.65,1.33,1.26,1.94.61.61,1.22.98,1.94,1.26.7.27,1.49.45,2.65.51,1.17.05,1.54.07,4.51.07s3.34-.01,4.51-.07c1.17-.05,1.96-.24,2.65-.51.72-.28,1.33-.65,1.94-1.26s.98-1.22,1.26-1.94c.27-.7.45-1.49.51-2.65.05-1.17.07-1.54.07-4.51s-.01-3.34-.07-4.51-.24-1.96-.51-2.65c-.28-.72-.65-1.33-1.26-1.94s-1.22-.98-1.94-1.26c-.7-.27-1.49-.45-2.65-.51-1.17-.05-1.54-.07-4.51-.07ZM17.5,0c9.66,0,17.5,7.84,17.5,17.5s-7.84,17.5-17.5,17.5S0,27.16,0,17.5,7.84,0,17.5,0Z"/>
  </g>
</svg>